<?xml version="1.0" encoding="UTF-8"?>
<svg id="Layer_2" data-name="Layer 2" xmlns="http://www.w3.org/2000/svg" viewBox="0 0 593.3 539.97">
  <defs>
    <style>
      .cls-1 {
        fill: #18a9e1;
      }

      .cls-2 {
        fill: #1aa6f1;
      }

      .cls-3 {
        fill: #12c2c9;
      }

      .cls-4 {
        fill: #13bcc2;
      }
    </style>
  </defs>
  <g id="Layer_1-2" data-name="Layer 1">
    <g>
      <circle class="cls-3" cx="140.38" cy="145.76" r="80.21"/>
      <circle class="cls-2" cx="439.71" cy="89.02" r="89.02"/>
      <path class="cls-1" d="M590.78,425.41c-.31-1.94-.12-4.23,1.04-7.01,1.44-3.46,1.4-7.31.2-10.87-.67-1.99-.65-3.5-.44-4.88-.06-1.95-.1-3.89-.04-5.84.36-12.06.14-24.16,1.19-36.17.09-1.02.26-2.18.57-3.02-.15-.85-.83-11.44-.78-12.3-19.71-83.21-78.06-134.45-149.97-136.97-53.12-1.86-105.73,22.93-141.85,69.67-1.27,1.64-.59,4.05,1.33,4.82l105.14,42.4-90.88,84.14,7.17.42c.2-.48.45-.95.76-1.4.81-2.21,2.36-4.16,4.43-5.27,1.59-.85,3.12-1.81,4.67-2.74,10.39-9.04,19.87-19.14,30.05-28.38,4.04-3.66,7.87-8.43,12.24-11.88.49-1.05,1.17-2.06,2.14-2.98,4.72-4.45,11.5-10.59,18.67-14.94.62-1.24,1.5-2.34,2.63-3.19.85-1.32,2.01-2.43,3.52-3.13.48-1.33,1.36-2.57,2.72-3.59,4.22-3.15,7.6-6.71,12.61-8.63,5.04-1.94,10.58-2.2,15.94-2.45,1.01-.05,2-.03,2.99,0,5.02-.08,9.15,1.1,13.23,3.14,4.4,1.89,8.56,4.49,12.45,7.48,8.08,6.21,12.28,18.66,13.31,28.5.88,8.34,2.08,17.9,1.54,26.68.6,4.53.74,9.02.17,13.64-.2,1.61-.5,3.22-.69,4.83-.16,1.29-.27,2.59-.35,3.89.01.19.01.33.02.49,1.45,3.03.87,6.26-.83,8.8l6.54.38,2.53-72.52,106.58,3.25-2.64,75.48,2.11.12Z"/>
      <path class="cls-1" d="M408.41,326.74l-87.89,87.26-61.78-1.44c1.93-50.54,16.61-93.03,39.25-125.94l110.42,40.11Z"/>
      <polygon class="cls-1" points="592.52 345.32 593.3 420.37 486.67 417.88 486.67 345.32 592.52 345.32"/>
      <path class="cls-4" d="M29.46,494.92c-22.17,24.59-37.83,63.72-24.62-84.97,7.65-86.1,68.87-156.52,153.83-156.52,31.86,0,52.94,9.52,86.01,26.73"/>
      <path class="cls-1" d="M411.26,314.94c4.76,1.73,6.1,7.86,2.5,11.44l-83.23,82.85-122.06,121.53c-5.93,5.9-13.94,9.2-22.29,9.2H61.7c-5.91,0-8.9-7.12-4.78-11.35l243-249.91c1.89-1.95,4.75-2.6,7.3-1.67h0s104.05,37.9,104.05,37.9Z"/>
      <path class="cls-1" d="M577.03,336.96c8.98,0,16.26,7.45,16.26,16.63v164.97c0,9.66-8.37,17.5-18.7,17.5h-87.56c-5.6,0-10.14-4.25-10.14-9.5v-172.96c0-9.19,7.28-16.63,16.26-16.63h83.88Z"/>
    </g>
  </g>
</svg>