<?xml version="1.0" encoding="UTF-8"?>
<svg version="1.1" xmlns="http://www.w3.org/2000/svg" width="781" height="598">
<path d="M0 0 C0.99 0 1.98 0 3 0 C3 0.66 3 1.32 3 2 C5.97 1.67 8.94 1.34 12 1 C12 1.66 12 2.32 12 3 C12.66 3 13.32 3 14 3 C14.33 2.34 14.66 1.68 15 1 C15 1.66 15 2.32 15 3 C16.02480469 3.19335938 17.04960937 3.38671875 18.10546875 3.5859375 C19.46619601 3.84869863 20.82687033 4.11173398 22.1875 4.375 C22.86103516 4.50132812 23.53457031 4.62765625 24.22851562 4.7578125 C28.0141239 5.49646777 31.47612869 6.42623223 35 8 C35.33 7.34 35.66 6.68 36 6 C36 6.99 36 7.98 36 9 C36.85271484 9.25523437 36.85271484 9.25523437 37.72265625 9.515625 C41.68311596 10.75864074 45.30817325 12.04129375 48.875 14.1875 C51.83041784 16.25085904 51.83041784 16.25085904 55 16 C55 16.99 55 17.98 55 19 C55.99 18.67 56.98 18.34 58 18 C58.66 18.845625 59.32 19.69125 60 20.5625 C62.68213852 23.78862154 65.70324123 26.42480475 68.8828125 29.1484375 C73.70424114 33.36496365 78.23693408 37.70826775 81.875 43 C82.57625 43.99 83.2775 44.98 84 46 C84.66 46 85.32 46 86 46 C86.41507813 47.010625 86.83015625 48.02125 87.2578125 49.0625 C88.60817994 52.21599583 90.16725281 55.19782329 91.85498047 58.18701172 C97.89002368 68.91373046 101.54463424 79.92778501 104 92 C104.33 92.66 104.66 93.32 105 94 C105.11072388 95.60192943 105.15966266 97.20830754 105.17840576 98.81394958 C105.19253006 99.83047607 105.20665436 100.84700256 105.22120667 101.89433289 C105.23167526 103.01386856 105.24214386 104.13340424 105.25292969 105.28686523 C105.2750074 107.05034805 105.2750074 107.05034805 105.29753113 108.84945679 C105.33645376 112.07874743 105.37077799 115.30804122 105.40211773 118.53741336 C105.4218295 120.55393947 105.44267821 122.57045074 105.46387482 124.58696175 C105.52984133 130.89324061 105.59180657 137.19954002 105.64805388 143.5059132 C105.71306811 150.79142459 105.79120052 158.07663884 105.88073611 165.3618893 C105.94912043 170.98987104 106.00592582 176.61789518 106.05390286 182.24608761 C106.08282694 185.60927138 106.11668801 188.97223472 106.16255951 192.33523369 C106.21078094 196.08476654 106.24009655 199.83398824 106.26464844 203.58374023 C106.28321396 204.70125168 106.30177948 205.81876312 106.32090759 206.97013855 C106.32517509 208.49915802 106.32517509 208.49915802 106.32952881 210.05906677 C106.33836971 210.94599936 106.34721062 211.83293196 106.35631943 212.74674129 C105.91929598 215.51034838 105.09446655 216.21679818 103 218 C102.236875 219.010625 101.47375 220.02125 100.6875 221.0625 C97.79479543 224.22429337 96.04127702 224.89783354 92 226 C91.67 226.66 91.34 227.32 91 228 C89.35 227.67 87.7 227.34 86 227 C86 227.66 86 228.32 86 229 C85.01 229 84.02 229 83 229 C83 228.34 83 227.68 83 227 C82.34 227.66 81.68 228.32 81 229 C78.72265625 228.94140625 78.72265625 228.94140625 76.0625 228.5625 C72.75648563 228.09995013 71.22393668 227.92535444 68 229 C66.33333333 228.66666667 64.66666667 228.33333333 63 228 C57.85189578 227.61929066 57.85189578 227.61929066 53 229 C50.66487041 228.67949202 48.33177975 228.34403308 46 228 C42.26650668 227.87555022 39.54547357 227.81817548 36 229 C36 228.34 36 227.68 36 227 C35.236875 227.04125 34.47375 227.0825 33.6875 227.125 C31 227 31 227 28 225 C28 224.01 28 223.02 28 222 C28.66 222 29.32 222 30 222 C29.93941155 206.47472313 29.86187357 190.94959895 29.76428509 175.42451382 C29.71936367 168.21555991 29.67994067 161.006655 29.65356445 153.79760742 C29.63055467 147.51250332 29.59712357 141.22755476 29.55129844 134.94257408 C29.52740604 131.61622186 29.51020591 128.29005558 29.50238609 124.96362114 C29.49276086 121.24561563 29.46471859 117.5281704 29.43237305 113.81030273 C29.43452568 112.1649202 29.43452568 112.1649202 29.4367218 110.48629761 C29.36317919 104.50746066 28.76616572 100.31327357 26 95 C25.67 94.01 25.34 93.02 25 92 C20.25853183 84.88779775 14.17766431 79.48858211 5.75 77.625 C0.09710651 76.76594427 -4.56961801 77.28418182 -10 79 C-10.65355469 79.20109375 -11.30710937 79.4021875 -11.98046875 79.609375 C-18.13634183 82.09710927 -22.39175992 87.11739814 -26.875 91.83203125 C-29.00155833 94.04283822 -31.20719596 96.06980398 -33.54443359 98.05541992 C-38.73030594 102.56778843 -43.56043004 107.41698695 -48.4140625 112.28125 C-49.39702064 113.26353246 -50.38012701 114.24566661 -51.3633728 115.22766113 C-53.41054132 117.2733658 -55.45591727 119.32084103 -57.5 121.36962891 C-60.10319304 123.97852601 -62.71086163 126.58289612 -65.31989479 129.18595123 C-67.34645529 131.20887693 -69.37060192 133.23420455 -71.39405441 135.26023865 C-72.81617828 136.68334142 -74.24029385 138.10445297 -75.66445923 139.5255127 C-79.88315845 143.75941557 -83.96314329 148.01809565 -87.7958374 152.60443115 C-89.27920902 154.32359036 -90.88744335 155.77542937 -92.64453125 157.2109375 C-98.3011238 162.02946652 -103.45964506 167.35298947 -108.6875 172.625 C-109.71655953 173.65909041 -110.74585507 174.69294602 -111.77539062 175.7265625 C-113.66772395 177.62697857 -115.5584121 179.528976 -117.44799805 181.43212891 C-119.06162698 183.05579188 -120.6816118 184.67318439 -122.31030273 186.28173828 C-125.25029628 189.25295441 -128.11219683 192.28957831 -130.97543335 195.33453369 C-134.22045008 198.76748309 -137.50327783 202.16324722 -140.78857422 205.55761719 C-142.5078879 207.34736528 -144.21443168 209.149472 -145.90771484 210.96386719 C-161.84357305 228.00633916 -161.84357305 228.00633916 -171.2890625 228.671875 C-173.53214185 228.5207851 -175.77189692 228.29964947 -178 228 C-182.66399019 227.70509868 -182.66399019 227.70509868 -187 229 C-187 228.34 -187 227.68 -187 227 C-187.56280167 227.01252808 -188.12560333 227.02505615 -188.70545959 227.03796387 C-194.69411984 227.17076498 -200.68285124 227.29994502 -206.67163086 227.42724609 C-208.89105102 227.47486559 -211.11045316 227.52333483 -213.32983398 227.57275391 C-225.17631478 227.83594935 -237.02151843 228.05177559 -248.87109375 228.09375 C-249.83427017 228.1002356 -250.79744659 228.10672119 -251.78981018 228.11340332 C-252.6808696 228.11400757 -253.57192902 228.11461182 -254.48999023 228.11523438 C-255.26753159 228.11728882 -256.04507294 228.11934326 -256.84617615 228.12145996 C-259.01537072 227.9991332 -260.9158472 227.59778327 -263 227 C-262.52916929 222.76252363 -259.94983984 220.75640771 -257 218 C-255.43171514 216.46421845 -253.86962508 214.92209529 -252.3125 213.375 C-251.54550781 212.61960937 -250.77851563 211.86421875 -249.98828125 211.0859375 C-247.85180231 208.96464641 -247.85180231 208.96464641 -246 206 C-244.42569146 204.6640546 -242.84997898 203.32974092 -241.26870728 202.00204468 C-236.06952733 197.41397346 -231.252315 192.39471007 -226.35546875 187.48828125 C-225.13729694 186.27078401 -223.9189768 185.05343518 -222.70051575 183.83622742 C-220.15980067 181.29697986 -217.62088622 178.75594935 -215.08325195 176.21362305 C-211.83058557 172.95523553 -208.5734172 169.70139102 -205.31490612 166.44884968 C-202.80384104 163.94139506 -200.2951587 161.43156746 -197.78719521 158.92101097 C-196.58663638 157.71978548 -195.38533542 156.51930125 -194.18327904 155.31957436 C-192.50802032 153.64685273 -190.83599619 151.97096353 -189.16479492 150.29418945 C-188.42064079 149.55307167 -188.42064079 149.55307167 -187.66145325 148.79698181 C-185.49253785 146.6146369 -183.71566439 144.57349658 -182 142 C-180.41207018 140.64811381 -178.82234807 139.29828706 -177.22460938 137.95800781 C-172.89940788 134.15114697 -168.87455398 130.02161969 -164.81005859 125.94042969 C-163.24298922 124.36796508 -161.67059933 122.80096176 -160.09765625 121.234375 C-159.09082476 120.22688326 -158.08430323 119.21908165 -157.078125 118.2109375 C-156.17481445 117.30649902 -155.27150391 116.40206055 -154.34082031 115.47021484 C-152.00399525 113.11065284 -152.00399525 113.11065284 -150.30761719 110.67431641 C-149.87610352 110.12179199 -149.44458984 109.56926758 -149 109 C-148.34 109 -147.68 109 -147 109 C-146.01 107.02 -146.01 107.02 -145 105 C-144.34 105 -143.68 105 -143 105 C-143 104.34 -143 103.68 -143 103 C-142.34 103 -141.68 103 -141 103 C-141 102.34 -141 101.68 -141 101 C-139.625 99.375 -139.625 99.375 -138 98 C-137.34 98 -136.68 98 -136 98 C-135.01 96.02 -135.01 96.02 -134 94 C-133.34 94 -132.68 94 -132 94 C-131.67 93.01 -131.34 92.02 -131 91 C-126.68181818 86.22727273 -126.68181818 86.22727273 -123 85 C-123 84.34 -123 83.68 -123 83 C-121.92790162 81.859564 -120.84142647 80.73127797 -119.71270752 79.64685059 C-117.62938204 77.64363302 -115.60035793 75.59092338 -113.56787109 73.53613281 C-109.36552538 69.30168442 -105.15870337 65.07173636 -100.94861412 60.84498978 C-98.41438338 58.3003598 -95.88204653 55.75390403 -93.35400391 53.203125 C-90.88884724 50.71595748 -88.41858485 48.23396078 -85.94496536 45.75521088 C-84.56868585 44.37355026 -83.19750653 42.98681513 -81.82650757 41.59991455 C-69.66414946 29.43542984 -55.03287918 16.26939145 -38.375 10.8125 C-37.199375 10.4103125 -37.199375 10.4103125 -36 10 C-35.67 9.01 -35.34 8.02 -35 7 C-34.01 7.495 -34.01 7.495 -33 8 C-30.79410403 7.44339942 -28.60876624 6.80425265 -26.4375 6.125 C-22.1581552 4.83943551 -18.14312563 3.74869763 -13.6875 3.375 C-12.470625 3.25125 -11.25375 3.1275 -10 3 C-9.67 2.34 -9.34 1.68 -9 1 C-9 1.66 -9 2.32 -9 3 C-6.03 2.34 -3.06 1.68 0 1 C0 0.67 0 0.34 0 0 Z " fill="#18A9E1" transform="translate(459,248)"/>
<path d="M0 0 C0.495 0.99 0.495 0.99 1 2 C2.29550781 1.95359375 3.59101563 1.9071875 4.92578125 1.859375 C22.03675731 1.43443891 37.06760445 3.83213361 52.80078125 10.6328125 C55.82997737 11.92734076 58.86200066 13.00305618 62 14 C62 14.66 62 15.32 62 16 C63.32 15.34 64.64 14.68 66 14 C65.67 15.32 65.34 16.64 65 18 C66.32 18.33 67.64 18.66 69 19 C69 19.99 69 20.98 69 22 C68.34 22 67.68 22 67 22 C66.67 22.99 66.34 23.98 66 25 C64.29296875 26.6484375 64.29296875 26.6484375 62.1875 28.375 C59.03968063 31.02727714 56.55083424 33.7624027 54 37 C53.34 37 52.68 37 52 37 C52 37.66 52 38.32 52 39 C50.35648543 40.36176922 48.68477344 41.68962066 47 43 C44.13833918 45.71490898 41.52553788 48.53960555 39 51.5625 C36.56804854 54.44227883 33.99445392 56.69657391 31 59 C28.13833918 61.71490898 25.52553788 64.53960555 23 67.5625 C20.56804854 70.44227883 17.99445392 72.69657391 15 75 C12.31372793 77.55195846 9.9003463 80.1226507 7.5625 83 C4.93248768 86.07903881 2.1374966 88.45078401 -1 91 C-3.86082718 93.71778582 -6.47301929 96.53914808 -9 99.5625 C-11.4323752 102.44784303 -14.05029428 104.64023542 -17 107 C-17.95634929 108.08788157 -18.89230035 109.19387455 -19.8125 110.3125 C-22.64241109 113.72740563 -25.80688121 116.50484963 -29.1796875 119.37109375 C-31.42013659 121.37595914 -33.18871144 123.60651155 -35 126 C-37.125 128.3125 -37.125 128.3125 -39 130 C-39.66 130 -40.32 130 -41 130 C-41.66 131.32 -42.32 132.64 -43 134 C-43.66 134 -44.32 134 -45 134 C-45.33 134.99 -45.66 135.98 -46 137 C-46.66 137 -47.32 137 -48 137 C-48 137.66 -48 138.32 -48 139 C-48.66 139 -49.32 139 -50 139 C-50.37251892 139.85951263 -50.37251892 139.85951263 -50.75256348 140.73638916 C-52.19076159 143.34615789 -53.85420515 145.108329 -55.95898438 147.21777344 C-56.77322876 148.03832214 -57.58747314 148.85887085 -58.4263916 149.70428467 C-59.74673401 151.01855438 -59.74673401 151.01855438 -61.09375 152.359375 C-61.9962146 153.26375305 -62.8986792 154.1681311 -63.82849121 155.09991455 C-65.73595104 157.00873491 -67.64530412 158.91540549 -69.55810547 160.81884766 C-72.01306309 163.26237881 -74.45888993 165.71482235 -76.90215302 168.17004013 C-79.23200594 170.50883913 -81.56944531 172.84002493 -83.90625 175.171875 C-84.78647827 176.05615173 -85.66670654 176.94042847 -86.5736084 177.85150146 C-87.38785278 178.65944153 -88.20209717 179.46738159 -89.04101562 180.29980469 C-89.75890259 181.01610046 -90.47678955 181.73239624 -91.21643066 182.47039795 C-93 184 -93 184 -95 184 C-95.07017548 173.80164157 -95.12314841 163.60334258 -95.15543652 153.40478992 C-95.17094993 148.6668259 -95.19191861 143.92902963 -95.22631836 139.19116211 C-95.49112687 101.71266692 -94.28939443 68.3869395 -70 38 C-68.06201737 35.22739701 -68.06201737 35.22739701 -67 33 C-65.84155981 32.06689232 -64.64793329 31.17709521 -63.4375 30.3125 C-60.56561674 28.21693854 -57.91499492 26.04476655 -55.3125 23.625 C-48.57678205 17.64506142 -36.5159612 8 -27 8 C-26.67 7.34 -26.34 6.68 -26 6 C-17.82184495 3.32958202 -8.5221716 2.99390091 0 2 C0 1.34 0 0.68 0 0 Z " fill="#13BCC2" transform="translate(259,280)"/>
<path d="M0 0 C0.495 0.99 0.495 0.99 1 2 C3.52733235 2.65555119 3.52733235 2.65555119 6 3 C6 3.66 6 4.32 6 5 C6.763125 4.938125 7.52625 4.87625 8.3125 4.8125 C11.53016907 5.03698854 11.89962531 5.71698403 14 8 C14.680625 8.144375 15.36125 8.28875 16.0625 8.4375 C16.701875 8.623125 17.34125 8.80875 18 9 C18.70394612 10.31403276 19.36345658 11.6520257 20 13 C21.64302953 14.68997323 23.31471312 16.35216394 25 18 C36.27704058 29.06625477 41.09230655 44.04488697 41.25 59.625 C40.8504772 77.1495228 40.8504772 77.1495228 38 80 C36.30825351 83.29927183 34.6910473 86.62337022 33.09765625 89.97070312 C26.16746756 104.21316314 14.27036231 112.02936914 0 118 C-0.91265625 118.40605469 -1.8253125 118.81210938 -2.765625 119.23046875 C-3.50296875 119.48441406 -4.2403125 119.73835938 -5 120 C-5.66 119.67 -6.32 119.34 -7 119 C-7.33 119.66 -7.66 120.32 -8 121 C-10.83355099 120.85771699 -13.66678787 120.71126584 -16.5 120.5625 C-17.29148437 120.52318359 -18.08296875 120.48386719 -18.8984375 120.44335938 C-23.97385441 120.17294782 -28.96375445 119.6872858 -34 119 C-34 118.34 -34 117.68 -34 117 C-34.99 117.33 -35.98 117.66 -37 118 C-37 117.34 -37 116.68 -37 116 C-37.66 115.9175 -38.32 115.835 -39 115.75 C-42.93109287 114.76722678 -46.63248564 113.28172702 -50 111 C-50.33 110.01 -50.66 109.02 -51 108 C-52.32516948 107.31724964 -53.66008096 106.65332932 -55 106 C-62.88358498 98.96108484 -67.42912605 90.32831418 -72 81 C-72.83333333 78.83333333 -72.83333333 78.83333333 -75 78 C-74.814375 77.319375 -74.62875 76.63875 -74.4375 75.9375 C-74.01777395 73.11933938 -74.28314266 71.03036222 -74.7265625 68.25 C-76.75142699 51.58825792 -73.01315959 35.46162503 -62.75 22.0625 C-62.1725 21.381875 -61.595 20.70125 -61 20 C-60.566875 18.9790625 -60.566875 18.9790625 -60.125 17.9375 C-58.77099463 15.60560187 -57.09877217 14.53366942 -54.83203125 13.1328125 C-52.71344495 11.82281244 -50.67762561 10.41095854 -48.625 9 C-45.66343271 7.01223619 -42.71473336 5.2939938 -39.5 3.75 C-35.95833333 2.41666667 -35.95833333 2.41666667 -35 0 C-23.9075032 -1.77346103 -11.09038063 -1.93670568 0 0 Z M-73 77 C-72 79 -72 79 -72 79 Z " fill="#1AA6F1" transform="translate(476,110)"/>
<path d="M0 0 C2.83304939 1.08360875 5.54527547 1.55691777 8.54296875 1.97265625 C9.03796875 3.45765625 9.03796875 3.45765625 9.54296875 4.97265625 C11.36894488 6.51909822 11.36894488 6.51909822 13.60546875 8.03515625 C25.8992162 17.3385327 32.08841577 30.00503251 34.54296875 44.97265625 C35.01143064 49.30251761 35.33650934 53.62277004 35.54296875 57.97265625 C34.88296875 57.97265625 34.22296875 57.97265625 33.54296875 57.97265625 C33.45015625 59.82890625 33.45015625 59.82890625 33.35546875 61.72265625 C31.84566049 74.7396518 23.9677638 87.0707298 13.9609375 95.33984375 C8.04102302 99.33745967 1.31444057 102.71549898 -5.45703125 104.97265625 C-6.11703125 105.63265625 -6.77703125 106.29265625 -7.45703125 106.97265625 C-7.45703125 106.31265625 -7.45703125 105.65265625 -7.45703125 104.97265625 C-8.44703125 105.30265625 -9.43703125 105.63265625 -10.45703125 105.97265625 C-12.15719969 106.05443739 -13.86039422 106.08015126 -15.5625 106.0703125 C-16.54541016 106.06708984 -17.52832031 106.06386719 -18.54101562 106.06054688 C-19.56517578 106.05216797 -20.58933594 106.04378906 -21.64453125 106.03515625 C-23.19817383 106.02838867 -23.19817383 106.02838867 -24.78320312 106.02148438 C-27.34120391 106.00969635 -29.89908858 105.9932414 -32.45703125 105.97265625 C-32.45703125 105.31265625 -32.45703125 104.65265625 -32.45703125 103.97265625 C-33.34390625 103.82828125 -34.23078125 103.68390625 -35.14453125 103.53515625 C-36.78421875 103.25671875 -36.78421875 103.25671875 -38.45703125 102.97265625 C-39.32328125 102.86953125 -40.18953125 102.76640625 -41.08203125 102.66015625 C-44.16921765 101.76649703 -45.24645271 100.30955357 -47.45703125 97.97265625 C-49.56057926 96.38790235 -51.69453883 94.85645565 -53.84765625 93.33984375 C-54.37875 92.88867188 -54.90984375 92.4375 -55.45703125 91.97265625 C-55.45703125 91.31265625 -55.45703125 90.65265625 -55.45703125 89.97265625 C-56.11703125 89.97265625 -56.77703125 89.97265625 -57.45703125 89.97265625 C-68.18979569 76.23904331 -72.89214822 59.97131048 -70.89453125 42.72265625 C-69.02361807 32.35517557 -65.56574516 22.85442179 -58.45703125 14.97265625 C-57.86019531 14.29589844 -57.26335937 13.61914062 -56.6484375 12.921875 C-42.20660121 -2.50793399 -19.74725474 -8.13808578 0 0 Z " fill="#12C2C9" transform="translate(275.45703125,156.02734375)"/>
<path d="M0 0 C0 4.59978482 -2.68443913 7.48204515 -5.625 10.875 C-7 12 -7 12 -9 12 C-9.26248535 12.58394531 -9.5249707 13.16789062 -9.79541016 13.76953125 C-11.06258148 16.11587847 -12.44096011 17.75633907 -14.2734375 19.6875 C-14.93472656 20.38746094 -15.59601563 21.08742188 -16.27734375 21.80859375 C-16.96957031 22.53175781 -17.66179687 23.25492187 -18.375 24 C-19.02855469 24.69222656 -19.68210938 25.38445312 -20.35546875 26.09765625 C-26.45410524 32.52279717 -32.7309558 38.7309558 -39 45 C-25.8 45 -12.6 45 1 45 C1 45.66 1 46.32 1 47 C18.82 47 36.64 47 55 47 C55 47.33 55 47.66 55 48 C52.6460153 48.16965655 50.29186616 48.3357935 47.9375 48.5 C46.62652344 48.5928125 45.31554687 48.685625 43.96484375 48.78125 C41.35608444 48.92518155 38.74154794 48.98984095 36.12890625 48.96875 C33.09379366 48.77049541 33.09379366 48.77049541 31 50 C31 49.34 31 48.68 31 48 C30.43719833 48.01252808 29.87439667 48.02505615 29.29454041 48.03796387 C23.30588016 48.17076498 17.31714876 48.29994502 11.32836914 48.42724609 C9.10894898 48.47486559 6.88954684 48.52333483 4.67016602 48.57275391 C-7.17631478 48.83594935 -19.02151843 49.05177559 -30.87109375 49.09375 C-31.83427017 49.1002356 -32.79744659 49.10672119 -33.78981018 49.11340332 C-34.6808696 49.11400757 -35.57192902 49.11461182 -36.48999023 49.11523438 C-37.26753159 49.11728882 -38.04507294 49.11934326 -38.84617615 49.12145996 C-41.01537072 48.9991332 -42.9158472 48.59778327 -45 48 C-44.52916929 43.76252363 -41.94983984 41.75640771 -39 39 C-37.43171514 37.46421845 -35.86962508 35.92209529 -34.3125 34.375 C-33.54550781 33.61960937 -32.77851563 32.86421875 -31.98828125 32.0859375 C-29.85180231 29.96464641 -29.85180231 29.96464641 -28 27 C-26.39613057 25.63255753 -24.79036232 24.26728202 -23.17529297 22.91308594 C-18.58890694 18.87953701 -14.3601516 14.46134287 -10.0625 10.125 C-9.08291763 9.14039081 -8.10310163 8.156014 -7.12304688 7.171875 C-4.74639748 4.78351797 -2.37212644 2.39284788 0 0 Z " fill="#158688" transform="translate(241,427)"/>
<path d="M0 0 C0.66 0 1.32 0 2 0 C1.48872325 4.22542078 0.33480673 6.16350887 -2.66186523 9.14770508 C-3.43614365 9.92813675 -4.21042206 10.70856842 -5.00816345 11.51264954 C-5.84980545 12.3399205 -6.69144745 13.16719147 -7.55859375 14.01953125 C-8.84782494 15.30738777 -8.84782494 15.30738777 -10.1631012 16.6212616 C-11.98006896 18.43219063 -13.80189172 20.23825962 -15.62817383 22.03979492 C-18.43366134 24.80871138 -21.22275565 27.59335782 -24.00976562 30.38085938 C-25.77509931 32.1363648 -27.54134447 33.89095424 -29.30859375 35.64453125 C-30.14821152 36.48192337 -30.98782928 37.31931549 -31.85289001 38.18208313 C-32.63032059 38.946754 -33.40775116 39.71142487 -34.20874023 40.49926758 C-34.89411362 41.17701736 -35.579487 41.85476715 -36.28562927 42.55305481 C-38 44 -38 44 -40 44 C-40.26047119 44.58499268 -40.52094238 45.16998535 -40.78930664 45.77270508 C-42.07817965 48.14382597 -43.4701198 49.72858386 -45.37109375 51.63671875 C-46.35625977 52.62575195 -46.35625977 52.62575195 -47.36132812 53.63476562 C-48.04646484 54.31216797 -48.73160156 54.98957031 -49.4375 55.6875 C-50.11876953 56.37650391 -50.80003906 57.06550781 -51.50195312 57.77539062 C-52.16001953 58.43087891 -52.81808594 59.08636719 -53.49609375 59.76171875 C-54.09607178 60.35944092 -54.6960498 60.95716309 -55.31420898 61.57299805 C-57 63 -57 63 -60 64 C-60.391875 64.680625 -60.78375 65.36125 -61.1875 66.0625 C-64.49385947 71.42108259 -68.67363427 76.00298611 -74.5 78.5 C-75.325 78.665 -76.15 78.83 -77 79 C-72.67216163 73.76103777 -68.03549004 68.98008422 -63.171875 64.234375 C-60.8692256 62.00120967 -60.8692256 62.00120967 -59 59 C-57.41207018 57.64811381 -55.82234807 56.29828706 -54.22460938 54.95800781 C-49.89940788 51.15114697 -45.87455398 47.02161969 -41.81005859 42.94042969 C-40.24298922 41.36796508 -38.67059933 39.80096176 -37.09765625 38.234375 C-36.09082476 37.22688326 -35.08430323 36.21908165 -34.078125 35.2109375 C-33.17481445 34.30649902 -32.27150391 33.40206055 -31.34082031 32.47021484 C-29.00399525 30.11065284 -29.00399525 30.11065284 -27.30761719 27.67431641 C-26.87610352 27.12179199 -26.44458984 26.56926758 -26 26 C-25.34 26 -24.68 26 -24 26 C-23.34 24.68 -22.68 23.36 -22 22 C-21.34 22 -20.68 22 -20 22 C-20 21.34 -20 20.68 -20 20 C-19.34 20 -18.68 20 -18 20 C-18 19.34 -18 18.68 -18 18 C-16.625 16.375 -16.625 16.375 -15 15 C-14.34 15 -13.68 15 -13 15 C-12.34 13.68 -11.68 12.36 -11 11 C-10.34 11 -9.68 11 -9 11 C-8.67 10.01 -8.34 9.02 -8 8 C-3.68181818 3.22727273 -3.68181818 3.22727273 0 2 C0 1.34 0 0.68 0 0 Z " fill="#139EA4" transform="translate(336,331)"/>
<path d="M0 0 C0.33 0 0.66 0 1 0 C2.07700305 6.12636078 2.14795194 12.10868375 2.14526367 18.31958008 C2.15030159 19.9987854 2.15030159 19.9987854 2.15544128 21.71191406 C2.16491117 25.39779785 2.16689188 29.08363607 2.16796875 32.76953125 C2.1711822 35.33306395 2.17454634 37.89659647 2.17805481 40.46012878 C2.18403479 45.82392883 2.18593858 51.18771193 2.18530273 56.55151367 C2.18470009 62.75519066 2.19529474 68.95878122 2.2110464 75.16243631 C2.22567275 81.13558817 2.22929163 87.10871344 2.22869301 93.08188438 C2.22987649 95.62291506 2.23431875 98.16394632 2.24202538 100.70496559 C2.25176567 104.24584909 2.24897176 107.78650583 2.24291992 111.32739258 C2.24853943 112.38453964 2.25415894 113.44168671 2.25994873 114.53086853 C2.25575424 115.49112946 2.25155975 116.45139038 2.24723816 117.44075012 C2.24778293 118.27786435 2.24832769 119.11497858 2.24888897 119.97745991 C2 122 2 122 0 124 C-0.66 123.67 -1.32 123.34 -2 123 C-2 122.01 -2 121.02 -2 120 C-1.34 120 -0.68 120 0 120 C0 80.4 0 40.8 0 0 Z " fill="#229DD6" transform="translate(489,350)"/>
<path d="M0 0 C0.66 0 1.32 0 2 0 C1.48088073 3.95558833 0.59907013 5.8968571 -2.23461914 8.6887207 C-3.25556419 9.70921257 -3.25556419 9.70921257 -4.2971344 10.75032043 C-5.03568161 11.4682225 -5.77422882 12.18612457 -6.53515625 12.92578125 C-7.66503212 14.04716743 -7.66503212 14.04716743 -8.81773376 15.19120789 C-11.22342613 17.57452737 -13.64265804 19.94355659 -16.0625 22.3125 C-17.69687536 23.92681175 -19.33035028 25.54203567 -20.96289062 27.15820312 C-24.96487599 31.1161089 -28.97806486 35.06237394 -33 39 C-33.33 38.34 -33.66 37.68 -34 37 C-31.92426743 32.84853486 -29.10142591 29.41952088 -26 26 C-25.34 26 -24.68 26 -24 26 C-23.34 24.68 -22.68 23.36 -22 22 C-21.34 22 -20.68 22 -20 22 C-20 21.34 -20 20.68 -20 20 C-19.34 20 -18.68 20 -18 20 C-18 19.34 -18 18.68 -18 18 C-16.625 16.375 -16.625 16.375 -15 15 C-14.34 15 -13.68 15 -13 15 C-12.34 13.68 -11.68 12.36 -11 11 C-10.34 11 -9.68 11 -9 11 C-8.67 10.01 -8.34 9.02 -8 8 C-3.68181818 3.22727273 -3.68181818 3.22727273 0 2 C0 1.34 0 0.68 0 0 Z " fill="#14B1CC" transform="translate(336,331)"/>
<path d="M0 0 C0.33 0 0.66 0 1 0 C1.01030746 0.57755035 1.02061493 1.15510071 1.03123474 1.75015259 C1.14131983 7.88477473 1.2556939 14.0193073 1.37231445 20.15380859 C1.41503145 22.4285287 1.45673516 24.7032681 1.49731445 26.97802734 C1.7269333 39.80833501 2.02603914 52.61858135 2.760849 65.43154907 C2.87747995 67.61937691 2.94428444 69.80977417 3 72 C2.505 72.495 2.505 72.495 2 73 C1.83982834 75.80976518 1.74049466 78.59773596 1.68359375 81.41015625 C1.66281265 82.25219101 1.64203156 83.09422577 1.62062073 83.96177673 C1.55503188 86.66193179 1.49619724 89.36218717 1.4375 92.0625 C1.39432363 93.88868241 1.35070964 95.71485454 1.30664062 97.54101562 C1.19934106 102.02723992 1.09810034 106.5135655 1 111 C0.67 111 0.34 111 0 111 C0 74.37 0 37.74 0 0 Z " fill="#1FA9F3" transform="translate(561,351)"/>
<path d="M0 0 C0.66 0.33 1.32 0.66 2 1 C4.31266267 10.79222359 3.97099234 23.12644406 2 33 C1.34 33.66 0.68 34.32 0 35 C-0.65225195 36.18775028 -1.2612114 37.3996968 -1.83984375 38.625 C-2.18080078 39.33140625 -2.52175781 40.0378125 -2.87304688 40.765625 C-3.58196136 42.25369503 -4.28770023 43.74328213 -4.99023438 45.234375 C-5.33248047 45.94078125 -5.67472656 46.6471875 -6.02734375 47.375 C-6.33406006 48.02210938 -6.64077637 48.66921875 -6.95678711 49.3359375 C-8 51 -8 51 -11 53 C-11.3125 50.8125 -11.3125 50.8125 -11 48 C-9.37660195 46.29115995 -7.70680947 44.62553283 -6 43 C-3.51854628 38.42890104 -2.92595553 33.07305425 -2 28 C-1.34 28 -0.68 28 0 28 C0 18.76 0 9.52 0 0 Z " fill="#166890" transform="translate(514,155)"/>
<path d="M0 0 C1.32 0.66 2.64 1.32 4 2 C-6.89 12.89 -17.78 23.78 -29 35 C-29.66 34.01 -30.32 33.02 -31 32 C-25.375 27.125 -25.375 27.125 -22 26 C-22 25.34 -22 24.68 -22 24 C-21.34 24 -20.68 24 -20 24 C-20 23.01 -20 22.02 -20 21 C-19.01 21 -18.02 21 -17 21 C-17 20.01 -17 19.02 -17 18 C-16.34 17.34 -15.68 16.68 -15 16 C-14.01 16 -13.02 16 -12 16 C-12 15.01 -12 14.02 -12 13 C-11.01 13 -10.02 13 -9 13 C-9 12.01 -9 11.02 -9 10 C-7.625 8.3125 -7.625 8.3125 -6 7 C-5.34 7 -4.68 7 -4 7 C-3.71125 6.401875 -3.4225 5.80375 -3.125 5.1875 C-2 3 -2 3 0 0 Z " fill="#188B95" transform="translate(329,436)"/>
<path d="M0 0 C0.33 0 0.66 0 1 0 C1.05058526 7.08411622 1.08568494 14.16818612 1.10986328 21.25244141 C1.11993954 23.66391744 1.13360081 26.07538122 1.15087891 28.48681641 C1.1750559 31.94697085 1.18646669 35.4069642 1.1953125 38.8671875 C1.20563507 39.95055389 1.21595764 41.03392029 1.22659302 42.15011597 C1.22674408 43.1510025 1.22689514 44.15188904 1.22705078 45.18310547 C1.231492 46.06690887 1.23593323 46.95071228 1.24050903 47.86129761 C1 50 1 50 -1 52 C-1.66 51.67 -2.32 51.34 -3 51 C-3 50.01 -3 49.02 -3 48 C-2.34 48 -1.68 48 -1 48 C-1.00523682 47.04335449 -1.01047363 46.08670898 -1.01586914 45.10107422 C-1.03425177 41.48161796 -1.04555084 37.86216562 -1.05493164 34.24267578 C-1.05989711 32.68928326 -1.06667173 31.13589525 -1.07543945 29.58251953 C-1.12993357 19.66459056 -0.87962079 9.88705665 0 0 Z " fill="#2396C8" transform="translate(490,422)"/>
<path d="M0 0 C17.82 0 35.64 0 54 0 C54.495 1.485 54.495 1.485 55 3 C54.01 3 53.02 3 52 3 C52 2.34 52 1.68 52 1 C51.34 1.66 50.68 2.32 50 3 C47.72265625 2.94140625 47.72265625 2.94140625 45.0625 2.5625 C41.75648563 2.09995013 40.22393668 1.92535444 37 3 C34.5 2.5 34.5 2.5 32 2 C26.85189578 1.61929066 26.85189578 1.61929066 22 3 C19.66487041 2.67949202 17.33177975 2.34403308 15 2 C11.26650668 1.87555022 8.54547357 1.81817548 5 3 C5 2.34 5 1.68 5 1 C3.35 1 1.7 1 0 1 C0 0.67 0 0.34 0 0 Z " fill="#10506C" transform="translate(490,474)"/>
<path d="M0 0 C2.63772115 2.63772115 3.38188224 5.59388959 4.5 9.0625 C4.72139648 9.73627686 4.94279297 10.41005371 5.17089844 11.10424805 C6.75821137 16.02244164 7.96962883 20.93400844 9 26 C9.33 26.66 9.66 27.32 10 28 C9.91188555 30.21138855 9.7570216 32.42042185 9.5625 34.625 C9.46066406 35.81351562 9.35882812 37.00203125 9.25390625 38.2265625 C9.17011719 39.14179688 9.08632813 40.05703125 9 41 C7.32140558 37.97993472 6.52699255 35.27325119 5.9375 31.875 C5.76863281 30.90175781 5.59976563 29.92851562 5.42578125 28.92578125 C5.04324263 26.29714428 4.80896635 23.71075971 4.625 21.0625 C4.19194207 15.95568478 2.61426904 11.45059052 0.83984375 6.6640625 C0 4 0 4 0 0 Z " fill="#1B83B5" transform="translate(554,314)"/>
<path d="M0 0 C-3.47738644 3.04271313 -7.53556703 4.87906012 -12 6 C-12.66 5.67 -13.32 5.34 -14 5 C-14.33 5.66 -14.66 6.32 -15 7 C-17.91747073 6.8859425 -20.83344495 6.75919732 -23.75 6.625 C-24.575 6.5940625 -25.4 6.563125 -26.25 6.53125 C-27.04921875 6.49257812 -27.8484375 6.45390625 -28.671875 6.4140625 C-29.4050293 6.3826416 -30.13818359 6.3512207 -30.89355469 6.31884766 C-33.24922918 5.96227477 -34.93450591 5.16337117 -37 4 C-35.29457031 3.94392578 -35.29457031 3.94392578 -33.5546875 3.88671875 C-24.73263966 3.5327625 -16.50684383 2.76574714 -7.91796875 0.62109375 C-5.17387243 0.03700899 -2.79341312 -0.11875878 0 0 Z " fill="#1976A3" transform="translate(483,224)"/>
<path d="M0 0 C4.47015403 6.70523104 5.52014652 14.17058594 6.1875 22.0625 C6.26935547 22.92810547 6.35121094 23.79371094 6.43554688 24.68554688 C6.63315552 26.78949774 6.81795005 28.89464582 7 31 C6.34 31 5.68 31 5 31 C5 32.65 5 34.3 5 36 C4.34 35.67 3.68 35.34 3 35 C3 29.72 3 24.44 3 19 C2.67 19 2.34 19 2 19 C1.66225668 16.77149723 1.3299813 14.54216533 1 12.3125 C0.814375 11.07113281 0.62875 9.82976562 0.4375 8.55078125 C0.07899589 5.64113629 -0.08942256 2.92299978 0 0 Z " fill="#128388" transform="translate(304,183)"/>
<path d="M0 0 C0 0.33 0 0.66 0 1 C-2.56238505 1.16861758 -5.12488424 1.33495773 -7.6875 1.5 C-8.7693457 1.57154297 -8.7693457 1.57154297 -9.87304688 1.64453125 C-17.75964171 2.14869713 -17.75964171 2.14869713 -21 2 C-21.33 1.67 -21.66 1.34 -22 1 C-24.67058851 0.85884839 -27.32432238 0.95752893 -30 1 C-21.32919665 -4.20248201 -9.29903717 -2.51568155 0 0 Z " fill="#1986B8" transform="translate(473,111)"/>
<path d="M0 0 C-1.65 1.32 -3.3 2.64 -5 4 C-5 3.34 -5 2.68 -5 2 C-5.99 2.33 -6.98 2.66 -8 3 C-9.70016844 3.08178114 -11.40336297 3.10749501 -13.10546875 3.09765625 C-14.08837891 3.09443359 -15.07128906 3.09121094 -16.08398438 3.08789062 C-17.10814453 3.07951172 -18.13230469 3.07113281 -19.1875 3.0625 C-20.22326172 3.05798828 -21.25902344 3.05347656 -22.32617188 3.04882812 C-24.88417266 3.0370401 -27.44205733 3.02058515 -30 3 C-30 2.34 -30 1.68 -30 1 C-30.99 0.67 -31.98 0.34 -33 0 C-32.33468262 0.00523682 -31.66936523 0.01047363 -30.98388672 0.01586914 C-27.94760089 0.03675253 -24.91133022 0.0496962 -21.875 0.0625 C-20.82828125 0.07087891 -19.7815625 0.07925781 -18.703125 0.08789062 C-12.71428351 0.10684266 -5.60996867 -1.94191223 0 0 Z " fill="#128687" transform="translate(273,259)"/>
<path d="M0 0 C0 4.59978482 -2.68443913 7.48204515 -5.625 10.875 C-7 12 -7 12 -9 12 C-9.268125 12.598125 -9.53625 13.19625 -9.8125 13.8125 C-11.03585242 16.06604393 -11.97960332 17.42858036 -14 19 C-16.6875 19.6875 -16.6875 19.6875 -19 20 C-13.17371096 12.84198775 -6.5617015 6.47408234 0 0 Z " fill="#15999B" transform="translate(241,427)"/>
<path d="M0 0 C0 3 0 3 -1.37695312 4.7175293 C-2.00537109 5.33023682 -2.63378906 5.94294434 -3.28125 6.57421875 C-3.95800781 7.24130859 -4.63476562 7.90839844 -5.33203125 8.59570312 C-6.04746094 9.28599609 -6.76289063 9.97628906 -7.5 10.6875 C-8.57314453 11.7403418 -8.57314453 11.7403418 -9.66796875 12.81445312 C-11.43879577 14.54986361 -13.21623456 16.2779073 -15 18 C-15.33 17.34 -15.66 16.68 -16 16 C-13.92426743 11.84853486 -11.10142591 8.41952088 -8 5 C-7.34 5 -6.68 5 -6 5 C-5.67 4.01 -5.34 3.02 -5 2 C-2.4375 0.8125 -2.4375 0.8125 0 0 Z " fill="#12ADBC" transform="translate(318,352)"/>
<path d="M0 0 C0.33 0.66 0.66 1.32 1 2 C-0.81291649 5.81666629 -2.29070176 7.20517827 -6 9 C-6.29519531 9.60199219 -6.59039062 10.20398438 -6.89453125 10.82421875 C-8.15248875 13.30012804 -9.63016528 14.82904805 -11.625 16.75 C-12.57246094 17.67039062 -12.57246094 17.67039062 -13.5390625 18.609375 C-14.02117187 19.06828125 -14.50328125 19.5271875 -15 20 C-15.33 19.34 -15.66 18.68 -16 18 C-13.77391924 13.19814764 -10.05102195 9.82071148 -6.3125 6.1875 C-5.70599609 5.59001953 -5.09949219 4.99253906 -4.47460938 4.37695312 C-2.98759688 2.91335815 -1.49441189 1.45603898 0 0 Z " fill="#13ABB5" transform="translate(302,366)"/>
<path d="M0 0 C-0.4375 2.25 -0.4375 2.25 -2 5 C-4.86070891 6.6904189 -7.9057617 7.80795737 -11 9 C-12.27213621 9.60141848 -13.54312 10.20528576 -14.8125 10.8125 C-18.1212415 12.0451684 -18.82612499 12.01205993 -22 11 C-19.98285723 9.72298179 -17.9616067 8.45339806 -15.9375 7.1875 C-15.37611328 6.83107422 -14.81472656 6.47464844 -14.23632812 6.10742188 C-4.43083429 0 -4.43083429 0 0 0 Z " fill="#198DBB" transform="translate(423,258)"/>
<path d="M0 0 C0.33 1.32 0.66 2.64 1 4 C-0.17163086 5.73925781 -0.17163086 5.73925781 -1.96484375 7.453125 C-2.59970703 8.071875 -3.23457031 8.690625 -3.88867188 9.328125 C-4.56478516 9.96234375 -5.24089844 10.5965625 -5.9375 11.25 C-6.60974609 11.8996875 -7.28199219 12.549375 -7.97460938 13.21875 C-9.63912593 14.82424114 -11.31415428 16.41696904 -13 18 C-13.99 17.34 -14.98 16.68 -16 16 C-10.72 10.72 -5.44 5.44 0 0 Z " fill="#149598" transform="translate(258,410)"/>
<path d="M0 0 C0.84111328 -0.00773438 1.68222656 -0.01546875 2.54882812 -0.0234375 C3.76795898 -0.01957031 3.76795898 -0.01957031 5.01171875 -0.015625 C6.10746216 -0.01224121 6.10746216 -0.01224121 7.2253418 -0.00878906 C9.60285545 0.28600149 11.24152294 1.07359391 13.3125 2.25 C12.73395264 2.27505615 12.15540527 2.3001123 11.55932617 2.32592773 C-3.58697476 2.95624464 -3.58697476 2.95624464 -18.6875 4.25 C-13.83371969 -0.60378031 -6.4272527 -0.05992776 0 0 Z " fill="#148C8E" transform="translate(256.6875,152.75)"/>
<path d="M0 0 C-2 2 -2 2 -4.52197266 2.22705078 C-5.5588623 2.21657715 -6.59575195 2.20610352 -7.6640625 2.1953125 C-8.78554688 2.18886719 -9.90703125 2.18242187 -11.0625 2.17578125 C-12.238125 2.15902344 -13.41375 2.14226562 -14.625 2.125 C-16.40003906 2.11146484 -16.40003906 2.11146484 -18.2109375 2.09765625 C-21.14082523 2.07402812 -24.0703134 2.04108514 -27 2 C-27 1.34 -27 0.68 -27 0 C-23.25044125 -0.19713345 -19.50034696 -0.3810316 -15.75 -0.5625 C-14.68652344 -0.61857422 -13.62304688 -0.67464844 -12.52734375 -0.73242188 C-10.99013672 -0.80493164 -10.99013672 -0.80493164 -9.421875 -0.87890625 C-8.47924805 -0.9260376 -7.53662109 -0.97316895 -6.56542969 -1.02172852 C-4.17740544 -1.00150258 -2.27325608 -0.69460602 0 0 Z " fill="#1BADB5" transform="translate(299,472)"/>
<path d="M0 0 C0.70125 0.12375 1.4025 0.2475 2.125 0.375 C-2.875 5.375 -7.875 10.375 -12.875 15.375 C-13.50390625 13.5234375 -13.50390625 13.5234375 -13.875 11.375 C-11.8125 9 -11.8125 9 -8.875 6.375 C-8.38128906 5.82972656 -7.88757813 5.28445313 -7.37890625 4.72265625 C-3.51620505 0.45863544 -3.51620505 0.45863544 0 0 Z " fill="#1A8EBC" transform="translate(428.875,339.625)"/>
<path d="M0 0 C0.99 0 1.98 0 3 0 C1.67879172 2.93230193 0.25361803 4.98664899 -2.0390625 7.234375 C-2.90917969 8.09482422 -2.90917969 8.09482422 -3.796875 8.97265625 C-4.40015625 9.55917969 -5.0034375 10.14570313 -5.625 10.75 C-6.23601562 11.35199219 -6.84703125 11.95398438 -7.4765625 12.57421875 C-8.97988624 14.05405305 -10.48934856 15.52764676 -12 17 C-12.578125 15.109375 -12.578125 15.109375 -13 13 C-11.75 11.25 -11.75 11.25 -10 10 C-9.01 10 -8.02 10 -7 10 C-6.67 8.68 -6.34 7.36 -6 6 C-4.68 5.67 -3.36 5.34 -2 5 C-2 4.01 -2 3.02 -2 2 C-1.34 1.34 -0.68 0.68 0 0 Z " fill="#198BB3" transform="translate(411,355)"/>
<path d="M0 0 C0 3.49371214 -0.31994996 4.91990825 -2 8 C-4.53980594 10.49315644 -7.2314269 12.7658259 -10 15 C-10 9.71422736 -6.88912139 6.77136152 -3.3125 3.1875 C-2.21315091 2.12001611 -1.1105715 1.05580359 0 0 Z " fill="#189CC4" transform="translate(379,288)"/>
<path d="M0 0 C0.74572266 -0.01224609 1.49144531 -0.02449219 2.25976562 -0.03710938 C6.21168236 -0.04768542 8.88159828 0.26461367 12.3125 2.1875 C11.74217041 2.18226318 11.17184082 2.17702637 10.58422852 2.17163086 C8.01449677 2.15091779 5.44478253 2.1378581 2.875 2.125 C1.97716797 2.11662109 1.07933594 2.10824219 0.15429688 2.09960938 C-0.69970703 2.09638672 -1.55371094 2.09316406 -2.43359375 2.08984375 C-3.22435303 2.08460693 -4.0151123 2.07937012 -4.82983398 2.07397461 C-6.70342689 1.98254091 -6.70342689 1.98254091 -7.6875 3.1875 C-10.37832872 3.01114548 -13.01601446 2.56914079 -15.6875 2.1875 C-15.6875 1.8575 -15.6875 1.5275 -15.6875 1.1875 C-10.42110388 0.31788373 -5.33414213 0.00468318 0 0 Z " fill="#19C5CE" transform="translate(263.6875,282.8125)"/>
<path d="M0 0 C0.66 0.66 1.32 1.32 2 2 C1.55269531 2.37511719 1.10539062 2.75023437 0.64453125 3.13671875 C-2.25933155 5.59478598 -5.05723426 8.05723426 -7.75 10.75 C-10 13 -10 13 -13 15 C-13 13.68 -13 12.36 -13 11 C-11.35666496 9.96210419 -9.68756133 8.96432076 -8 8 C-7.690625 7.360625 -7.38125 6.72125 -7.0625 6.0625 C-5.47351785 2.97800523 -2.9050075 1.76826544 0 0 Z " fill="#12999C" transform="translate(279,347)"/>
<path d="M0 0 C-1.35852131 3.08693704 -2.84510953 5.08641734 -5.375 7.3125 C-5.96023438 7.84488281 -6.54546875 8.37726563 -7.1484375 8.92578125 C-9 10 -9 10 -11.2265625 9.66796875 C-11.81179688 9.44753906 -12.39703125 9.22710937 -13 9 C-11.73548068 7.68141572 -10.46314525 6.37032369 -9.1875 5.0625 C-8.47980469 4.33160156 -7.77210938 3.60070312 -7.04296875 2.84765625 C-4.7483354 0.77239511 -3.11769329 0 0 0 Z " fill="#18A2C1" transform="translate(362,309)"/>
<path d="M0 0 C0.66 1.32 1.32 2.64 2 4 C-5.11389522 10.51936219 -5.11389522 10.51936219 -10 12 C-7.49653351 7.14032976 -3.91447559 3.72143296 0 0 Z " fill="#159DB7" transform="translate(348,319)"/>
<path d="M0 0 C2.64 0.33 5.28 0.66 8 1 C8 1.66 8 2.32 8 3 C8.95712891 3.29003906 8.95712891 3.29003906 9.93359375 3.5859375 C10.75988281 3.84632813 11.58617187 4.10671875 12.4375 4.375 C13.26121094 4.63023437 14.08492188 4.88546875 14.93359375 5.1484375 C17 6 17 6 18 8 C17.01 8.33 16.02 8.66 15 9 C15 8.34 15 7.68 15 7 C14.01 7.33 13.02 7.66 12 8 C12 7.34 12 6.68 12 6 C11.319375 5.9175 10.63875 5.835 9.9375 5.75 C6.1253093 4.77667472 3.35929671 3.04192545 0 1 C0 0.67 0 0.34 0 0 Z " fill="#17769C" transform="translate(427,220)"/>
<path d="M0 0 C0.66 0.33 1.32 0.66 2 1 C0.0331562 5.55479617 -1.79916199 8.29946128 -6 11 C-8.8125 11.75 -8.8125 11.75 -11 12 C-10.34 11.67 -9.68 11.34 -9 11 C-9 10.34 -9 9.68 -9 9 C-8.34 9 -7.68 9 -7 9 C-7 8.34 -7 7.68 -7 7 C-5.625 5.375 -5.625 5.375 -4 4 C-3.34 4 -2.68 4 -2 4 C-1.34 2.68 -0.68 1.36 0 0 Z " fill="#0F97AB" transform="translate(325,342)"/>
<path d="M0 0 C0.66 0.33 1.32 0.66 2 1 C-5.11389522 9.81548975 -5.11389522 9.81548975 -10 11 C-8.67367286 5.36310966 -4.53368235 3.06814317 0 0 Z " fill="#159EA3" transform="translate(295,242)"/>
<path d="M0 0 C1.875 0.25 1.875 0.25 4 1 C4.6837045 2.32467746 5.34964186 3.65863633 6 5 C7.96672915 6.1500831 7.96672915 6.1500831 10 7 C10.66 7.66 11.32 8.32 12 9 C11.625 11.125 11.625 11.125 11 13 C9.2925002 11.71937515 7.62626404 10.38232443 6 9 C6 8.34 6 7.68 6 7 C5.34 7 4.68 7 4 7 C2.02 3.535 2.02 3.535 0 0 Z " fill="#169A9C" transform="translate(214,239)"/>
<path d="M0 0 C1.32 0.66 2.64 1.32 4 2 C1.03 4.97 -1.94 7.94 -5 11 C-5.66 10.01 -6.32 9.02 -7 8 C-6.01 7.67 -5.02 7.34 -4 7 C-2.89163577 5.11683841 -2.89163577 5.11683841 -2 3 C-1.34 2.01 -0.68 1.02 0 0 Z " fill="#1894A3" transform="translate(329,436)"/>
<path d="M0 0 C0.99 0 1.98 0 3 0 C3 0.66 3 1.32 3 2 C2.34 2 1.68 2 1 2 C1 3.65 1 5.3 1 7 C-2.75 8.125 -2.75 8.125 -5 7 C-4.0409375 6.1028125 -4.0409375 6.1028125 -3.0625 5.1875 C-0.79689611 3.09189663 -0.79689611 3.09189663 0 0 Z M3 2 C3.99 2.495 3.99 2.495 5 3 C4.01 3.495 4.01 3.495 3 4 C3 3.34 3 2.68 3 2 Z " fill="#13999C" transform="translate(212,454)"/>
<path d="M0 0 C0.66 0 1.32 0 2 0 C1.38722388 2.96175123 0.74627478 4.38058783 -1 7 C-1.66 7 -2.32 7 -3 7 C-3 7.66 -3 8.32 -3 9 C-4.32 9 -5.64 9 -7 9 C-6.1875 7.0625 -6.1875 7.0625 -5 5 C-4.01 4.67 -3.02 4.34 -2 4 C-0.79117904 1.99983534 -0.79117904 1.99983534 0 0 Z " fill="#15ADB6" transform="translate(314,310)"/>
<path d="M0 0 C-4 2.66666667 -8 5.33333333 -12 8 C-12.33 7.01 -12.66 6.02 -13 5 C-12.01 5 -11.02 5 -10 5 C-9.87625 4.360625 -9.7525 3.72125 -9.625 3.0625 C-9.41875 2.381875 -9.2125 1.70125 -9 1 C-6.04335481 -0.4783226 -3.25770263 -0.06032783 0 0 Z " fill="#1985B2" transform="translate(449,326)"/>
<path d="M0 0 C1.32 0.33 2.64 0.66 4 1 C1.36 3.64 -1.28 6.28 -4 9 C-4.66 8.01 -5.32 7.02 -6 6 C-5.01 5.67 -4.02 5.34 -3 5 C-1.8499169 3.03327085 -1.8499169 3.03327085 -1 1 C-0.67 0.67 -0.34 0.34 0 0 Z " fill="#1992A7" transform="translate(344,422)"/>
<path d="M0 0 C0.33 0.66 0.66 1.32 1 2 C-0.87577357 6.06417607 -2.93582393 8.12422643 -7 10 C-7.66 9.67 -8.32 9.34 -9 9 C-6.03 6.03 -3.06 3.06 0 0 Z " fill="#1098A2" transform="translate(302,366)"/>
<path d="M0 0 C-1.24460783 0.67667998 -2.49596896 1.34094719 -3.75 2 C-4.44609375 2.37125 -5.1421875 2.7425 -5.859375 3.125 C-8 4 -8 4 -12 4 C-12.33 3.01 -12.66 2.02 -13 1 C-12.01 1 -11.02 1 -10 1 C-9.030625 0.649375 -8.06125 0.29875 -7.0625 -0.0625 C-3.91536451 -1.02590882 -3.00186724 -0.92714258 0 0 Z " fill="#167BAA" transform="translate(436,255)"/>
<path d="M0 0 C0.66 0 1.32 0 2 0 C2 0.66 2 1.32 2 2 C2.66 2 3.32 2 4 2 C4.33 1.34 4.66 0.68 5 0 C5 0.66 5 1.32 5 2 C7.31 2.33 9.62 2.66 12 3 C12 3.33 12 3.66 12 4 C6.39 4 0.78 4 -5 4 C-5 3.67 -5 3.34 -5 3 C-3.35 2.67 -1.7 2.34 0 2 C0 1.34 0 0.68 0 0 Z " fill="#1575A5" transform="translate(469,249)"/>
<path d="M0 0 C0.66 0.33 1.32 0.66 2 1 C-0.31537955 4.72114571 -2.28579473 7.61229661 -6 10 C-6.66 9.67 -7.32 9.34 -8 9 C-7.67 8.34 -7.34 7.68 -7 7 C-6.01 7 -5.02 7 -4 7 C-3.67 5.35 -3.34 3.7 -3 2 C-2.34 2 -1.68 2 -1 2 C-0.67 1.34 -0.34 0.68 0 0 Z " fill="#1D7DAE" transform="translate(561,463)"/>
<path d="M0 0 C0.33 0.66 0.66 1.32 1 2 C3.31 2 5.62 2 8 2 C5.41073669 4.58926331 3.97294721 4.37398043 0.375 4.625 C-0.62789063 4.69976562 -1.63078125 4.77453125 -2.6640625 4.8515625 C-3.82035156 4.92503906 -3.82035156 4.92503906 -5 5 C-5.33 4.34 -5.66 3.68 -6 3 C-4.02 2.67 -2.04 2.34 0 2 C0 1.34 0 0.68 0 0 Z " fill="#12789A" transform="translate(454,321)"/>
<path d="M0 0 C4.95 0 9.9 0 15 0 C15 0.66 15 1.32 15 2 C12.36 2.33 9.72 2.66 7 3 C7 2.34 7 1.68 7 1 C4.69 1 2.38 1 0 1 C0 0.67 0 0.34 0 0 Z " fill="#17ABB0" transform="translate(272,283)"/>
<path d="M0 0 C0 3.5934292 -0.58617491 4.41970421 -3 7 C-5.93840447 8.46920223 -7.69747512 9 -11 9 C-7.37 6.03 -3.74 3.06 0 0 Z " fill="#1981A7" transform="translate(400,270)"/>
<path d="M0 0 C-1.11666174 3.34998521 -1.74694925 3.79340222 -4.5625 5.6875 C-5.20316406 6.12449219 -5.84382813 6.56148438 -6.50390625 7.01171875 C-6.99761719 7.33785156 -7.49132812 7.66398437 -8 8 C-8.33 7.01 -8.66 6.02 -9 5 C-4.5 0 -4.5 0 0 0 Z " fill="#159DA2" transform="translate(289,339)"/>
<path d="M0 0 C0.66 0 1.32 0 2 0 C1.54917531 1.46067199 1.08906463 2.91848032 0.625 4.375 C0.36976563 5.18710938 0.11453125 5.99921875 -0.1484375 6.8359375 C-1 9 -1 9 -3 11 C-3.125 4.25 -3.125 4.25 -2 2 C-1.34 2 -0.68 2 0 2 C0 1.34 0 0.68 0 0 Z " fill="#12858A" transform="translate(305,224)"/>
<path d="M0 0 C1.125 1.75 1.125 1.75 2 4 C1.3125 6.1875 1.3125 6.1875 0 8 C-0.99 8.33 -1.98 8.66 -3 9 C-2.4140625 2.84765625 -2.4140625 2.84765625 -2 1 C-1.34 0.67 -0.68 0.34 0 0 Z " fill="#198EC0" transform="translate(514,182)"/>
<path d="M0 0 C0.33 0.66 0.66 1.32 1 2 C1.99 2.33 2.98 2.66 4 3 C4.625 5.875 4.625 5.875 5 9 C4.34 9.66 3.68 10.32 3 11 C2.49384702 9.73160474 1.99530901 8.46016898 1.5 7.1875 C1.2215625 6.47980469 0.943125 5.77210938 0.65625 5.04296875 C0 3 0 3 0 0 Z " fill="#1D96D1" transform="translate(510,146)"/>
<path d="M0 0 C0.66 0.33 1.32 0.66 2 1 C-0.64 3.64 -3.28 6.28 -6 9 C-6.99 8.34 -7.98 7.68 -9 7 C-6.62997587 4.38049964 -4.04546021 2.76316117 -1 1 C-0.67 0.67 -0.34 0.34 0 0 Z " fill="#15ABB1" transform="translate(251,419)"/>
<path d="M0 0 C0.99 0.33 1.98 0.66 3 1 C3 1.66 3 2.32 3 3 C1.46875 4.2890625 1.46875 4.2890625 -0.5 5.625 C-1.1496875 6.07101562 -1.799375 6.51703125 -2.46875 6.9765625 C-2.9740625 7.31429688 -3.479375 7.65203125 -4 8 C-3.50168276 4.31245243 -2.89932357 2.39509338 0 0 Z " fill="#129CA0" transform="translate(254,370)"/>
<path d="M0 0 C1.258125 0.12375 2.51625 0.2475 3.8125 0.375 C4.87404297 0.47941406 4.87404297 0.47941406 5.95703125 0.5859375 C8 1 8 1 11 3 C11 3.66 11 4.32 11 5 C5.06 3.515 5.06 3.515 -1 2 C-0.67 1.34 -0.34 0.68 0 0 Z " fill="#1978A5" transform="translate(463,323)"/>
<path d="M0 0 C1.65 0 3.3 0 5 0 C4.04882866 1.1725131 3.08882991 2.33787015 2.125 3.5 C1.59132812 4.1496875 1.05765625 4.799375 0.5078125 5.46875 C0.01023438 5.9740625 -0.48734375 6.479375 -1 7 C-1.66 7 -2.32 7 -3 7 C-3 5.68 -3 4.36 -3 3 C-2.34 3 -1.68 3 -1 3 C-0.67 2.01 -0.34 1.02 0 0 Z " fill="#178B87" transform="translate(167,457)"/>
<path d="M0 0 C0.66 0 1.32 0 2 0 C1.8125 2.3125 1.8125 2.3125 1 5 C-1.4375 6.875 -1.4375 6.875 -4 8 C-4.66 7.67 -5.32 7.34 -6 7 C-4.71937515 5.2925002 -3.38232443 3.62626404 -2 2 C-1.34 2 -0.68 2 0 2 C0 1.34 0 0.68 0 0 Z " fill="#1296A7" transform="translate(336,331)"/>
<path d="M0 0 C0.66 0.33 1.32 0.66 2 1 C0.9375 3.375 0.9375 3.375 -1 6 C-4.6875 7.3125 -4.6875 7.3125 -8 8 C-6.6636586 3.99097581 -4.50572968 3.19108105 -1 1 C-0.67 0.67 -0.34 0.34 0 0 Z " fill="#187BA5" transform="translate(424,121)"/>
<path d="M0 0 C0.99 0.33 1.98 0.66 3 1 C0.36 3.64 -2.28 6.28 -5 9 C-5.33 8.01 -5.66 7.02 -6 6 C-5.34 6 -4.68 6 -4 6 C-3.71125 5.38125 -3.4225 4.7625 -3.125 4.125 C-2 2 -2 2 0 0 Z " fill="#148586" transform="translate(206,420)"/>
<path d="M0 0 C-3.42346555 3.14958831 -6.44262737 3.56179109 -11 4 C-11.33 3.34 -11.66 2.68 -12 2 C-7.8803623 0.70756464 -4.33168317 -0.26252625 0 0 Z " fill="#1B7EAE" transform="translate(483,224)"/>
<path d="M0 0 C0.99 0.33 1.98 0.66 3 1 C0.69 3.31 -1.62 5.62 -4 8 C-4.66 7.34 -5.32 6.68 -6 6 C-4.02 4.02 -2.04 2.04 0 0 Z " fill="#178A87" transform="translate(181,445)"/>
<path d="M0 0 C0.33 0.99 0.66 1.98 1 3 C-0.65 4.32 -2.3 5.64 -4 7 C-4.6875 5.1875 -4.6875 5.1875 -5 3 C-3.38441968 0.84589291 -2.74502455 0 0 0 Z " fill="#12A8AB" transform="translate(240,386)"/>
<path d="M0 0 C0.99 0 1.98 0 3 0 C1.50902342 3.7952131 -0.75700849 5.61042731 -4 8 C-3.40353695 4.65980694 -2.31705841 2.49529367 0 0 Z " fill="#1A89AA" transform="translate(386,380)"/>
<path d="M0 0 C2.1875 0.3125 2.1875 0.3125 4 1 C2.35 2.65 0.7 4.3 -1 6 C-1.66 5.01 -2.32 4.02 -3 3 C-1.75 1.4375 -1.75 1.4375 0 0 Z " fill="#149FA3" transform="translate(262,362)"/>
<path d="M0 0 C0.66 0 1.32 0 2 0 C1.67 1.65 1.34 3.3 1 5 C-0.98 5.33 -2.96 5.66 -5 6 C-3.38405168 3.95880212 -1.7143618 1.95927063 0 0 Z " fill="#198EB7" transform="translate(385,282)"/>
<path d="M0 0 C2.25 0.25 2.25 0.25 4 1 C2.25 3.0625 2.25 3.0625 0 5 C-2.25 4.75 -2.25 4.75 -4 4 C-2.25 1.9375 -2.25 1.9375 0 0 Z " fill="#1C9BD4" transform="translate(417,128)"/>
<path d="M0 0 C1.258125 0.12375 2.51625 0.2475 3.8125 0.375 C4.87404297 0.47941406 4.87404297 0.47941406 5.95703125 0.5859375 C8 1 8 1 11 3 C3.57142857 3.14285714 3.57142857 3.14285714 0 2 C0 1.34 0 0.68 0 0 Z " fill="#1877A2" transform="translate(481,253)"/>
<path d="M0 0 C0.33 0 0.66 0 1 0 C1.1875 3.375 1.1875 3.375 1 7 C0.01 7.66 -0.98 8.32 -2 9 C-3 6 -3 6 -1.5625 2.8125 C-1.046875 1.884375 -0.53125 0.95625 0 0 Z " fill="#14B0B7" transform="translate(301,230)"/>
<path d="M0 0 C2.64 0.33 5.28 0.66 8 1 C8 1.66 8 2.32 8 3 C8.66 3.33 9.32 3.66 10 4 C3.47692308 3.38461538 3.47692308 3.38461538 1.0625 1.4375 C0.711875 0.963125 0.36125 0.48875 0 0 Z " fill="#1C86B6" transform="translate(427,220)"/>
<path d="M0 0 C0.33 0.66 0.66 1.32 1 2 C0 5 0 5 -2.4375 6.75 C-3.7059375 7.36875 -3.7059375 7.36875 -5 8 C-5.66 7.67 -6.32 7.34 -7 7 C-4.69 4.69 -2.38 2.38 0 0 Z " fill="#13989A" transform="translate(221,167)"/>
<path d="M0 0 C2.78489278 1.39244639 4.12301529 3.55991988 6 6 C3.69 5.67 1.38 5.34 -1 5 C-1.33 3.68 -1.66 2.36 -2 1 C-1.34 0.67 -0.68 0.34 0 0 Z " fill="#109295" transform="translate(282,158)"/>
<path d="M0 0 C0.33 0.66 0.66 1.32 1 2 C0.22265625 3.9453125 0.22265625 3.9453125 -0.9375 6.125 C-1.31777344 6.84945312 -1.69804687 7.57390625 -2.08984375 8.3203125 C-2.39019531 8.87460938 -2.69054687 9.42890625 -3 10 C-3.66 10 -4.32 10 -5 10 C-3.84414715 6.08788267 -2.64465038 3.1254959 0 0 Z " fill="#1B88B6" transform="translate(412,134)"/>
<path d="M0 0 C-2.27795022 2.27795022 -3.93787293 3.05219877 -7 4 C-9.1640625 3.55078125 -9.1640625 3.55078125 -11 3 C-9.73581754 2.30034557 -8.46334598 1.61565237 -7.1875 0.9375 C-6.47980469 0.55464844 -5.77210938 0.17179687 -5.04296875 -0.22265625 C-3 -1 -3 -1 0 0 Z " fill="#1A7CA7" transform="translate(441,114)"/>
<path d="M0 0 C0 1.65 0 3.3 0 5 C-0.99 5.33 -1.98 5.66 -3 6 C-3.33 6.66 -3.66 7.32 -4 8 C-3.74438677 5.6568787 -3.40729228 3.32156597 -3 1 C-1 0 -1 0 0 0 Z " fill="#18B1BA" transform="translate(308,218)"/>
<path d="M0 0 C1.4370809 -0.05422947 2.87475462 -0.09289723 4.3125 -0.125 C5.11300781 -0.14820313 5.91351562 -0.17140625 6.73828125 -0.1953125 C9 0 9 0 12 2 C9.98177083 1.96744792 7.96354167 1.93489583 5.9453125 1.90234375 C3.91814596 1.87350758 3.91814596 1.87350758 2 3 C1.34 2.67 0.68 2.34 0 2 C0 1.34 0 0.68 0 0 Z " fill="#0A6173" transform="translate(510,474)"/>
<path d="M0 0 C1.32 0.33 2.64 0.66 4 1 C2 3 2 3 -0.6015625 3.1953125 C-1.59929687 3.17210937 -2.59703125 3.14890625 -3.625 3.125 C-5.12933594 3.09792969 -5.12933594 3.09792969 -6.6640625 3.0703125 C-7.43492187 3.04710937 -8.20578125 3.02390625 -9 3 C-9 2.67 -9 2.34 -9 2 C-6.03 2 -3.06 2 0 2 C0 1.34 0 0.68 0 0 Z " fill="#1A9A9F" transform="translate(295,471)"/>
<path d="M0 0 C0 2 0 4 0 6 C-1.32 6 -2.64 6 -4 6 C-3.6875 4.125 -3.6875 4.125 -3 2 C-2.01 1.34 -1.02 0.68 0 0 Z " fill="#179595" transform="translate(201,468)"/>
<path d="M0 0 C0 3 0 3 -1 6 C-4.0625 7.1875 -4.0625 7.1875 -7 8 C-6.02133662 6.85373678 -5.04205413 5.70800212 -4.0625 4.5625 C-3.51722656 3.92441406 -2.97195313 3.28632813 -2.41015625 2.62890625 C-1.63204305 1.73008851 -0.84063472 0.84063472 0 0 Z " fill="#11888B" transform="translate(266,402)"/>
<path d="M0 0 C3.82097239 0.53069061 6.06171403 1.49701566 9 4 C2.25 3.125 2.25 3.125 0 2 C0 1.34 0 0.68 0 0 Z " fill="#197CAD" transform="translate(497,258)"/>
<path d="M0 0 C2.875 -0.1875 2.875 -0.1875 6 0 C6.66 0.99 7.32 1.98 8 3 C7.01 3.33 6.02 3.66 5 4 C2.3125 2.0625 2.3125 2.0625 0 0 Z " fill="#159597" transform="translate(226,252)"/>
<path d="M0 0 C0.99 0.33 1.98 0.66 3 1 C-0.465 3.97 -0.465 3.97 -4 7 C-4 6.01 -4 5.02 -4 4 C-3.34 4 -2.68 4 -2 4 C-1.34 2.68 -0.68 1.36 0 0 Z " fill="#148586" transform="translate(197,429)"/>
<path d="M0 0 C0 0.66 0 1.32 0 2 C-4.43076923 4.09230769 -4.43076923 4.09230769 -7.3125 3.625 C-7.869375 3.41875 -8.42625 3.2125 -9 3 C-3.375 0 -3.375 0 0 0 Z " fill="#15898B" transform="translate(228,290)"/>
<path d="M0 0 C0.33 0 0.66 0 1 0 C1 1.98 1 3.96 1 6 C0.67 6 0.34 6 0 6 C0 4.02 0 2.04 0 0 Z " fill="#0E77A9" transform="translate(399,169)"/>
<path d="M0 0 C0.66 0 1.32 0 2 0 C1.67 0.66 1.34 1.32 1 2 C0.67 1.34 0.34 0.68 0 0 Z " fill="#1C6581" transform="translate(409,204)"/>
<path d="M0 0 C0.66 0.66 1.32 1.32 2 2 C1.34 2 0.68 2 0 2 C0 1.34 0 0.68 0 0 Z " fill="#005781" transform="translate(400,182)"/>
<path d="" fill="#0082C2" transform="translate(0,0)"/>
<path d="" fill="#003F7F" transform="translate(0,0)"/>
<path d="" fill="#003F7F" transform="translate(0,0)"/>
<path d="" fill="#00C2C2" transform="translate(0,0)"/>
<path d="" fill="#003F7F" transform="translate(0,0)"/>
<path d="" fill="#2A547F" transform="translate(0,0)"/>
<path d="" fill="#003F7F" transform="translate(0,0)"/>
<path d="" fill="#003F7F" transform="translate(0,0)"/>
<path d="" fill="#003F7F" transform="translate(0,0)"/>
<path d="" fill="#008600" transform="translate(0,0)"/>
<path d="" fill="#000000" transform="translate(0,0)"/>
<path d="" fill="#000000" transform="translate(0,0)"/>
<path d="" fill="#000000" transform="translate(0,0)"/>
<path d="" fill="#008686" transform="translate(0,0)"/>
<path d="" fill="#008686" transform="translate(0,0)"/>
<path d="" fill="#008686" transform="translate(0,0)"/>
<path d="" fill="#008686" transform="translate(0,0)"/>
<path d="" fill="#008686" transform="translate(0,0)"/>
<path d="" fill="#008686" transform="translate(0,0)"/>
<path d="" fill="#008686" transform="translate(0,0)"/>
<path d="" fill="#008686" transform="translate(0,0)"/>
<path d="" fill="#008686" transform="translate(0,0)"/>
<path d="" fill="#008686" transform="translate(0,0)"/>
<path d="" fill="#008686" transform="translate(0,0)"/>
<path d="" fill="#008686" transform="translate(0,0)"/>
<path d="" fill="#008686" transform="translate(0,0)"/>
<path d="" fill="#008686" transform="translate(0,0)"/>
<path d="" fill="#008686" transform="translate(0,0)"/>
<path d="" fill="#008686" transform="translate(0,0)"/>
<path d="" fill="#008686" transform="translate(0,0)"/>
<path d="" fill="#008686" transform="translate(0,0)"/>
<path d="" fill="#008686" transform="translate(0,0)"/>
<path d="" fill="#008686" transform="translate(0,0)"/>
<path d="" fill="#008686" transform="translate(0,0)"/>
<path d="" fill="#008686" transform="translate(0,0)"/>
<path d="" fill="#008686" transform="translate(0,0)"/>
<path d="" fill="#008686" transform="translate(0,0)"/>
<path d="" fill="#008686" transform="translate(0,0)"/>
<path d="" fill="#008686" transform="translate(0,0)"/>
<path d="" fill="#008686" transform="translate(0,0)"/>
<path d="" fill="#008686" transform="translate(0,0)"/>
<path d="" fill="#008686" transform="translate(0,0)"/>
<path d="" fill="#008686" transform="translate(0,0)"/>
<path d="" fill="#008686" transform="translate(0,0)"/>
<path d="" fill="#008686" transform="translate(0,0)"/>
<path d="" fill="#008686" transform="translate(0,0)"/>
<path d="" fill="#008686" transform="translate(0,0)"/>
<path d="" fill="#008686" transform="translate(0,0)"/>
<path d="" fill="#008686" transform="translate(0,0)"/>
<path d="" fill="#008686" transform="translate(0,0)"/>
<path d="" fill="#008686" transform="translate(0,0)"/>
<path d="" fill="#008686" transform="translate(0,0)"/>
<path d="" fill="#008686" transform="translate(0,0)"/>
<path d="" fill="#008686" transform="translate(0,0)"/>
<path d="" fill="#008686" transform="translate(0,0)"/>
<path d="" fill="#008686" transform="translate(0,0)"/>
<path d="" fill="#008686" transform="translate(0,0)"/>
<path d="" fill="#008686" transform="translate(0,0)"/>
<path d="" fill="#008686" transform="translate(0,0)"/>
<path d="" fill="#008686" transform="translate(0,0)"/>
<path d="" fill="#008686" transform="translate(0,0)"/>
<path d="" fill="#000000" transform="translate(0,0)"/>
<path d="" fill="#000000" transform="translate(0,0)"/>
</svg>
